<mxfile host="app.diagrams.net" agent="Mozilla/5.0 (Macintosh; Intel Mac OS X 10_15_7) AppleWebKit/537.36 (KHTML, like Gecko) Chrome/129.0.0.0 Safari/537.36" version="24.7.17">
  <diagram name="第 1 页" id="dkYcHAT9oTw72r68LZyz">
    <mxGraphModel dx="1026" dy="564" grid="1" gridSize="10" guides="1" tooltips="1" connect="1" arrows="1" fold="1" page="1" pageScale="1" pageWidth="827" pageHeight="1169" math="0" shadow="0">
      <root>
        <mxCell id="0" />
        <mxCell id="1" parent="0" />
        <mxCell id="69V-SClEr225RSw-9jj0-6" value="" style="rounded=1;whiteSpace=wrap;html=1;strokeColor=#788AA3;fontColor=#46495D;fillColor=#B2C9AB;" vertex="1" parent="1">
          <mxGeometry x="220" y="80" width="640" height="100" as="geometry" />
        </mxCell>
        <mxCell id="69V-SClEr225RSw-9jj0-1" value="&amp;nbsp;首页" style="rounded=1;whiteSpace=wrap;html=1;fillColor=#B2C9AB;strokeColor=#788AA3;labelBackgroundColor=none;fontColor=#46495D;" vertex="1" parent="1">
          <mxGeometry x="240" y="103" width="120" height="60" as="geometry" />
        </mxCell>
        <mxCell id="69V-SClEr225RSw-9jj0-2" value="UI" style="text;html=1;align=center;verticalAlign=middle;resizable=0;points=[];autosize=1;strokeColor=none;fillColor=none;fontColor=#46495D;" vertex="1" parent="1">
          <mxGeometry x="145" y="118" width="40" height="30" as="geometry" />
        </mxCell>
        <mxCell id="69V-SClEr225RSw-9jj0-3" value="会议页" style="rounded=1;whiteSpace=wrap;html=1;fillColor=#B2C9AB;strokeColor=#788AA3;labelBackgroundColor=none;fontColor=#46495D;" vertex="1" parent="1">
          <mxGeometry x="400" y="103" width="120" height="60" as="geometry" />
        </mxCell>
        <mxCell id="69V-SClEr225RSw-9jj0-4" value="设置页" style="rounded=1;whiteSpace=wrap;html=1;fillColor=#B2C9AB;strokeColor=#788AA3;labelBackgroundColor=none;fontColor=#46495D;" vertex="1" parent="1">
          <mxGeometry x="560" y="103" width="120" height="60" as="geometry" />
        </mxCell>
        <mxCell id="69V-SClEr225RSw-9jj0-5" value="..." style="rounded=1;whiteSpace=wrap;html=1;fillColor=#B2C9AB;strokeColor=#788AA3;labelBackgroundColor=none;fontColor=#46495D;" vertex="1" parent="1">
          <mxGeometry x="720" y="103" width="120" height="60" as="geometry" />
        </mxCell>
        <mxCell id="69V-SClEr225RSw-9jj0-7" value="" style="rounded=1;whiteSpace=wrap;html=1;strokeColor=#b85450;fillColor=#f8cecc;" vertex="1" parent="1">
          <mxGeometry x="220" y="240" width="650" height="180" as="geometry" />
        </mxCell>
        <mxCell id="69V-SClEr225RSw-9jj0-8" value="核心业务层" style="text;html=1;align=center;verticalAlign=middle;resizable=0;points=[];autosize=1;strokeColor=none;fillColor=none;fontColor=#46495D;" vertex="1" parent="1">
          <mxGeometry x="125" y="315" width="80" height="30" as="geometry" />
        </mxCell>
        <mxCell id="69V-SClEr225RSw-9jj0-9" value="Engine" style="rounded=1;whiteSpace=wrap;html=1;strokeColor=#b85450;fillColor=#f8cecc;" vertex="1" parent="1">
          <mxGeometry x="270" y="257.5" width="140" height="60" as="geometry" />
        </mxCell>
        <mxCell id="69V-SClEr225RSw-9jj0-10" value="UserManager" style="rounded=1;whiteSpace=wrap;html=1;strokeColor=#b85450;fillColor=#f8cecc;" vertex="1" parent="1">
          <mxGeometry x="430" y="257.5" width="150" height="60" as="geometry" />
        </mxCell>
        <mxCell id="69V-SClEr225RSw-9jj0-11" value="公用业务逻辑" style="rounded=1;whiteSpace=wrap;html=1;strokeColor=#b85450;fillColor=#f8cecc;" vertex="1" parent="1">
          <mxGeometry x="620" y="257.5" width="170" height="60" as="geometry" />
        </mxCell>
        <mxCell id="69V-SClEr225RSw-9jj0-12" value="" style="rounded=1;whiteSpace=wrap;html=1;strokeColor=#788AA3;fontColor=#46495D;fillColor=#B2C9AB;" vertex="1" parent="1">
          <mxGeometry x="220" y="450" width="650" height="100" as="geometry" />
        </mxCell>
        <mxCell id="69V-SClEr225RSw-9jj0-13" value="基础组件" style="rounded=1;whiteSpace=wrap;html=1;strokeColor=#788AA3;fontColor=#46495D;fillColor=#B2C9AB;" vertex="1" parent="1">
          <mxGeometry x="255" y="470" width="120" height="60" as="geometry" />
        </mxCell>
        <mxCell id="69V-SClEr225RSw-9jj0-15" value="工具类" style="rounded=1;whiteSpace=wrap;html=1;strokeColor=#788AA3;fontColor=#46495D;fillColor=#B2C9AB;" vertex="1" parent="1">
          <mxGeometry x="405" y="470" width="120" height="60" as="geometry" />
        </mxCell>
        <mxCell id="69V-SClEr225RSw-9jj0-16" value="网络" style="rounded=1;whiteSpace=wrap;html=1;strokeColor=#788AA3;fontColor=#46495D;fillColor=#B2C9AB;" vertex="1" parent="1">
          <mxGeometry x="555" y="470" width="120" height="60" as="geometry" />
        </mxCell>
        <mxCell id="69V-SClEr225RSw-9jj0-17" value="..." style="rounded=1;whiteSpace=wrap;html=1;strokeColor=#788AA3;fontColor=#46495D;fillColor=#B2C9AB;" vertex="1" parent="1">
          <mxGeometry x="705" y="470" width="120" height="60" as="geometry" />
        </mxCell>
        <mxCell id="69V-SClEr225RSw-9jj0-18" value="基础层" style="text;html=1;align=center;verticalAlign=middle;resizable=0;points=[];autosize=1;strokeColor=none;fillColor=none;fontColor=#46495D;" vertex="1" parent="1">
          <mxGeometry x="135" y="485" width="60" height="30" as="geometry" />
        </mxCell>
        <mxCell id="69V-SClEr225RSw-9jj0-19" value="ctrtc sdk" style="rounded=1;whiteSpace=wrap;html=1;strokeColor=#b85450;fillColor=#f8cecc;" vertex="1" parent="1">
          <mxGeometry x="270" y="342.5" width="520" height="60" as="geometry" />
        </mxCell>
      </root>
    </mxGraphModel>
  </diagram>
</mxfile>
